/vscmnt/brussel_pixiu_data/_data_brussel/112/vsc11236/PredSimResults/SUBJ06_Dhondt2024_3seg/weighted/worker_03.mot
version=1
nRows=4
nColumns=124
inDegrees=yes
endheader
                time	         pelvis_tilt	         pelvis_list	     pelvis_rotation	           pelvis_tx	           pelvis_ty	           pelvis_tz	       hip_flexion_r	     hip_adduction_r	      hip_rotation_r	        knee_angle_r	       ankle_angle_r	    subtalar_angle_r	         mtp_angle_r	       hip_flexion_l	     hip_adduction_l	      hip_rotation_l	        knee_angle_l	       ankle_angle_l	    subtalar_angle_l	         mtp_angle_l	    lumbar_extension	      lumbar_bending	     lumbar_rotation	          arm_flex_r	           arm_add_r	           arm_rot_r	        elbow_flex_r	          arm_flex_l	           arm_add_l	           arm_rot_l	        elbow_flex_l	glut_med1_r/activation	glut_med2_r/activation	glut_med3_r/activation	glut_min1_r/activation	glut_min2_r/activation	glut_min3_r/activation	semimem_r/activation	semiten_r/activation	bifemlh_r/activation	bifemsh_r/activation	    sar_r/activation	add_long_r/activation	add_brev_r/activation	add_mag1_r/activation	add_mag2_r/activation	add_mag3_r/activation	    tfl_r/activation	   pect_r/activation	   grac_r/activation	glut_max1_r/activation	glut_max2_r/activation	glut_max3_r/activation	iliacus_r/activation	  psoas_r/activation	quad_fem_r/activation	    gem_r/activation	   peri_r/activation	rect_fem_r/activation	vas_med_r/activation	vas_int_r/activation	vas_lat_r/activation	med_gas_r/activation	lat_gas_r/activation	 soleus_r/activation	tib_post_r/activation	flex_dig_r/activation	flex_hal_r/activation	tib_ant_r/activation	per_brev_r/activation	per_long_r/activation	per_tert_r/activation	ext_dig_r/activation	ext_hal_r/activation	glut_med1_l/activation	glut_med2_l/activation	glut_med3_l/activation	glut_min1_l/activation	glut_min2_l/activation	glut_min3_l/activation	semimem_l/activation	semiten_l/activation	bifemlh_l/activation	bifemsh_l/activation	    sar_l/activation	add_long_l/activation	add_brev_l/activation	add_mag1_l/activation	add_mag2_l/activation	add_mag3_l/activation	    tfl_l/activation	   pect_l/activation	   grac_l/activation	glut_max1_l/activation	glut_max2_l/activation	glut_max3_l/activation	iliacus_l/activation	  psoas_l/activation	quad_fem_l/activation	    gem_l/activation	   peri_l/activation	rect_fem_l/activation	vas_med_l/activation	vas_int_l/activation	vas_lat_l/activation	med_gas_l/activation	lat_gas_l/activation	 soleus_l/activation	tib_post_l/activation	flex_dig_l/activation	flex_hal_l/activation	tib_ant_l/activation	per_brev_l/activation	per_long_l/activation	per_tert_l/activation	ext_dig_l/activation	ext_hal_l/activation	 ercspn_r/activation	 ercspn_l/activation	 intobl_r/activation	 intobl_l/activation	 extobl_r/activation	 extobl_l/activation	
          0.00000000	         -2.92988203	         -1.90118617	          1.96299536	          0.00000000	          0.93136471	         -0.00216440	         24.74447442	          3.96958214	          2.96591945	         -5.20214293	          5.94292936	         -6.08723999	          0.19055596	        -15.22051678	          0.97650150	          9.71813884	         -5.96901307	          5.73376267	         -0.29133684	         18.08000975	         -4.59003668	          1.09958577	         -1.48808952	         -3.67159043	        -13.44970763	         17.60007207	         26.07400411	          0.80410682	        -13.50932338	         19.15277469	         48.15374435	          0.01021491	          0.01000030	          0.01000050	          0.01000027	          0.01000028	          0.01000041	          0.26259215	          0.04144157	          0.02972409	          0.01000010	          0.01000015	          0.09652477	          0.19321019	          0.16335831	          0.15865440	          0.09057726	          0.01000023	          0.02022858	          0.07381376	          0.01190189	          0.01509484	          0.06938065	          0.01137323	          0.01023152	          0.01824803	          0.01000034	          0.01000023	          0.01094345	          0.10717793	          0.10565094	          0.08832631	          0.01000005	          0.01000012	          0.01000027	          0.01190151	          0.01000467	          0.01015187	          0.24696630	          0.24568412	          0.15468672	          0.12023478	          0.33327155	          0.03600331	          0.26308652	          0.12618165	          0.07503340	          0.36916546	          0.28945463	          0.18764329	          0.01000201	          0.01000027	          0.01000026	          0.05467273	          0.11157873	          0.01000004	          0.01000006	          0.01000012	          0.01000050	          0.01000036	          0.44676457	          0.01000023	          0.01000028	          0.02008516	          0.01685738	          0.01000180	          0.31224199	          0.49194613	          0.01684298	          0.01685985	          0.09431543	          0.32217022	          0.01000043	          0.01000043	          0.01000041	          0.41956138	          0.50347915	          0.42362546	          0.30976738	          0.35202291	          0.43742125	          0.01416474	          0.18620944	          0.27134048	          0.01870708	          0.01702228	          0.01432601	          0.02777474	          0.01000000	          0.04529500	          0.01000000	          0.07665206	          0.01000001	
          0.01140943	         -2.92612309	         -2.22453427	          2.11685086	          0.01541966	          0.93083706	         -0.00197698	         23.81903432	          4.50011073	          3.10270365	         -4.35160082	          4.75303629	         -6.34520573	          0.20789074	        -15.34575268	          0.64784065	          9.40430341	         -7.39572673	          4.96083027	         -0.03215164	         19.42641910	         -4.41853112	          1.59760756	         -1.54877615	         -4.02398067	        -13.45115119	         17.40583437	         25.12410414	          0.22158208	        -13.53622683	         19.13247764	         49.58444527	          0.01190157	          0.01003893	          0.01000005	          0.01190164	          0.01190158	          0.01000131	          0.23034431	          0.03482031	          0.02497497	          0.01000007	          0.01000022	          0.08110265	          0.21741958	          0.20001423	          0.16458868	          0.07610551	          0.01000056	          0.02382726	          0.06202048	          0.01000040	          0.01268310	          0.05829568	          0.01000025	          0.01000012	          0.18250326	          0.05122444	          0.01000010	          0.01416512	          0.09005392	          0.08877091	          0.07421429	          0.01000001	          0.01000002	          0.01000000	          0.01000002	          0.01000014	          0.01000011	          0.25051516	          0.22048769	          0.14411817	          0.11389025	          0.36874613	          0.03025094	          0.29091492	          0.10602100	          0.06304496	          0.31018236	          0.24320711	          0.15766263	          0.01000049	          0.01000011	          0.01000007	          0.04593742	          0.09375134	          0.02969102	          0.01000047	          0.01000038	          0.01000092	          0.01000027	          0.37538298	          0.04171043	          0.01001423	          0.01687618	          0.01416417	          0.01000045	          0.26235367	          0.41334558	          0.01415196	          0.01416615	          0.07924620	          0.28469845	          0.01000053	          0.01000062	          0.01000060	          0.38206154	          0.46020703	          0.39580207	          0.30114799	          0.35881355	          0.44224232	          0.01190158	          0.15645795	          0.26281419	          0.01571817	          0.01430255	          0.01203709	          0.02333704	          0.01304641	          0.03805800	          0.01599087	          0.06440499	          0.01000002	
          0.02281886	         -2.91796800	         -2.55237894	          2.25878319	          0.03112187	          0.93031062	         -0.00179792	         22.88856695	          4.99280293	          3.26686273	         -4.04031564	          3.13706703	         -6.58328655	          0.22076463	        -15.38727131	          0.31424387	          9.06058811	         -8.97904824	          4.03768121	          0.27380070	         20.82316949	         -4.22954802	          2.10645650	         -1.60016234	         -4.39248734	        -13.46572981	         17.28067321	         24.18605821	         -0.41496496	        -13.56367157	         19.10809559	         50.98914076	          0.01000002	          0.01000003	          0.01000058	          0.01000009	          0.01000007	          0.01000008	          0.19354110	          0.02925742	          0.02098476	          0.01000047	          0.01000513	          0.06814453	          0.18268179	          0.16805863	          0.13829180	          0.06394582	          0.01000011	          0.02002125	          0.12556782	          0.01000039	          0.02251171	          0.04898164	          0.01000991	          0.01416447	          0.22502277	          0.04338722	          0.01077027	          0.01190191	          0.07566561	          0.07458761	          0.06235676	          0.01416476	          0.01416495	          0.01311118	          0.01416486	          0.01301747	          0.01416479	          0.21412996	          0.20506947	          0.13661934	          0.09569348	          0.43620573	          0.02541763	          0.24443411	          0.08908152	          0.05297196	          0.26062314	          0.20434876	          0.13247212	          0.01004224	          0.01000107	          0.01000128	          0.03859778	          0.07877228	          0.04251959	          0.01004133	          0.01065879	          0.01074500	          0.01190043	          0.31540629	          0.03504674	          0.01000176	          0.01417991	          0.01190143	          0.01002074	          0.22043619	          0.34730341	          0.01189092	          0.01190283	          0.06658466	          0.23921085	          0.02739826	          0.02059294	          0.01199061	          0.32714799	          0.40282517	          0.35958476	          0.27842081	          0.30148496	          0.37896130	          0.01000001	          0.13750507	          0.27242910	          0.01320681	          0.01201736	          0.01011388	          0.01960837	          0.01848944	          0.03197730	          0.01416472	          0.05411470	          0.01190814	
          0.03422829	         -2.90704003	         -2.89718647	          2.38557878	          0.04699609	          0.92983478	         -0.00164658	         21.92925949	          5.42901842	          3.47326184	         -3.83513080	          1.29762763	         -6.81085113	          0.22058670	        -15.31853772	         -0.03263362	          8.67880156	        -10.74489078	          2.94544123	          0.60661070	         22.23257156	         -4.03075162	          2.64120465	         -1.64007675	         -4.75501806	        -13.49910534	         17.24976334	         23.25007953	         -1.08636628	        -13.58231079	         19.08017406	         52.34797131	          0.24033898	          0.23069126	          0.23221453	          0.10652968	          0.09823680	          0.16983711	          0.16261811	          0.06199106	          0.03726407	          0.01685811	          0.01002333	          0.05725676	          0.15349386	          0.14120717	          0.11619635	          0.05372896	          0.01000102	          0.01682254	          0.10550537	          0.09145947	          0.03112097	          0.04115567	          0.01190132	          0.01190150	          0.18906982	          0.03645515	          0.06610660	          0.01000030	          0.06357620	          0.06267044	          0.05239377	          0.01190159	          0.01190175	          0.01101635	          0.01190168	          0.01093763	          0.01190164	          0.41606379	          0.28237014	          0.14853997	          0.48637291	          0.53576076	          0.23429833	          0.26970272	          0.07484854	          0.04450838	          0.36145155	          0.17169901	          0.11130642	          0.01000106	          0.01000011	          0.01000006	          0.03243084	          0.06618649	          0.05047974	          0.01000014	          0.01000017	          0.01000046	          0.01000029	          0.26501242	          0.12188710	          0.01000028	          0.01191443	          0.01000040	          0.01000022	          0.18521611	          0.29540464	          0.01000003	          0.01000113	          0.05594611	          0.20099102	          0.02302081	          0.01730281	          0.01007491	          0.27487797	          0.33846387	          0.30213216	          0.25138821	          0.25331540	          0.31841295	          0.01000000	          0.14995185	          0.23635756	          0.01109672	          0.01009730	          0.01000006	          0.02279387	          0.04998422	          0.02686815	          0.01190156	          0.04546853	          0.01000553	
